<?xml version="1.0" encoding="utf-8"?>
<!-- Generator: Adobe Illustrator 24.2.0, SVG Export Plug-In . SVG Version: 6.00 Build 0)  -->
<svg version="1.1" id="Layer_1" xmlns="http://www.w3.org/2000/svg" xmlns:xlink="http://www.w3.org/1999/xlink" x="0px" y="0px"
	 viewBox="0 0 1000 1000" style="enable-background:new 0 0 1000 1000;" xml:space="preserve">
<style type="text/css">
	.st0{fill:#3660AD;}
</style>
<g>
	<path d="M218.9,385.9c-63,0-114.1,51.1-114.1,114.1c0,63,51.1,114.1,114.1,114.1c63,0,114.1-51.1,114.1-114.1
		C333,437,281.9,385.9,218.9,385.9 M271.2,550.5c-2.1,3.4-6.4,4.4-9.8,2.4c-26.8-16.4-60.5-20.1-100.3-11c-3.8,0.9-7.6-1.5-8.5-5.4
		c-0.9-3.8,1.5-7.6,5.4-8.5c43.5-9.9,80.8-5.7,110.9,12.7C272.2,542.7,273.3,547.1,271.2,550.5 M285.2,519.4
		c-2.6,4.2-8.1,5.5-12.2,2.9c-30.7-18.9-77.4-24.3-113.7-13.3c-4.7,1.4-9.7-1.2-11.1-5.9c-1.4-4.7,1.2-9.7,5.9-11.1
		c41.5-12.6,93-6.5,128.2,15.2C286.5,509.8,287.8,515.2,285.2,519.4 M286.4,487c-36.8-21.8-97.5-23.9-132.6-13.2
		c-5.6,1.7-11.6-1.5-13.3-7.1c-1.7-5.6,1.5-11.6,7.1-13.3c40.3-12.2,107.3-9.9,149.7,15.3c5.1,3,6.7,9.6,3.7,14.6
		C298,488.4,291.5,490.1,286.4,487"/>
	<path d="M365.7,541l11.3-15.6c7.7,8.4,20.2,15.9,36.1,15.9c16.4,0,22.8-8.1,22.8-15.8c0-24-66.4-9.1-66.4-51
		c0-19,16.4-33.6,41.6-33.6c17.6,0,32.2,5.8,42.6,16.1L442.4,472c-9.1-9.1-21.2-13.2-33.2-13.2c-11.6,0-19.2,5.8-19.2,14.2
		c0,21.4,66.4,8.2,66.4,50.7c0,19-13.5,35.4-44.2,35.4C391.2,559.1,376,551.6,365.7,541"/>
	<path d="M492.2,545.6v43h-18V474.4h18v11.3c6.2-8.2,15.7-13.4,26.5-13.4c21.4,0,36.6,16.1,36.6,43.3c0,27.2-15.2,43.5-36.6,43.5
		C508.3,559.1,499.1,554.3,492.2,545.6 M536.9,515.6c0-16.1-9.2-27.4-23.5-27.4c-8.4,0-17.1,4.8-21.2,11v32.7
		c3.9,6.2,12.8,11.3,21.2,11.3C527.7,543.2,536.9,531.7,536.9,515.6"/>
	<path d="M568.4,515.6c0-23.8,16.1-43.3,42.5-43.3c26.4,0,42.5,19.5,42.5,43.3c0,23.6-16.1,43.5-42.5,43.5
		C584.5,559.1,568.4,539.3,568.4,515.6 M634.7,515.6c0-14.6-8.4-27.4-23.8-27.4c-15.2,0-23.8,12.8-23.8,27.4
		c0,14.7,8.6,27.6,23.8,27.6C626.3,543.2,634.7,530.4,634.7,515.6"/>
	<path d="M675.4,537.7V490h-13.7v-15.6h13.7v-22.6h18v22.6h16.8V490h-16.8v43.3c0,5.7,2.7,9.9,7.9,9.9c3.4,0,6.5-1.6,7.9-3.1
		l4.3,13.7c-3.2,2.9-8.6,5.3-16.8,5.3C682.6,559.1,675.4,551.6,675.4,537.7"/>
	<path d="M724.2,453.2c0-6.2,5-11.1,11.1-11.1c6.2,0,11.1,5,11.1,11.1c0,6.2-5,11.1-11.1,11.1C729.2,464.3,724.2,459.3,724.2,453.2
		 M726.3,474.4h18v82.7h-18V474.4z"/>
	<path d="M772,557.1V490h-13.7v-15.6H772v-4.6c0-18,10.4-28.6,26-28.6c7.5,0,14.9,1.9,19.9,7.2l-7,11.1c-2.4-2.2-5.5-3.6-9.4-3.6
		c-7.2,0-11.5,4.6-11.5,13.9v4.6h16.8V490H790v67.1H772z"/>
	<path d="M819.6,573.3c1.9,0.9,4.8,1.4,6.8,1.4c5.8,0,9.6-1.7,12-7.2l4.1-9.4l-34.1-83.7h19.3l24.1,62l24.1-62h19.2L855.4,572
		c-5.7,14-15.4,18.5-28.2,18.7c-2.6,0-7.7-0.5-10.1-1.2L819.6,573.3z"/>
</g>
</svg>
